<mxfile host="app.diagrams.net" modified="2024-01-21T15:50:26.870Z" agent="Mozilla/5.0 (Macintosh; Intel Mac OS X 10_15_7) AppleWebKit/537.36 (KHTML, like Gecko) Chrome/120.0.0.0 Safari/537.36" etag="-UclNGL4-O9uIh-5Xx99" version="22.1.18" type="device">
  <diagram name="Page-1" id="0DgsAS5yGHRTk2cncg4U">
    <mxGraphModel dx="1406" dy="1117" grid="1" gridSize="10" guides="1" tooltips="1" connect="1" arrows="1" fold="1" page="1" pageScale="1" pageWidth="1169" pageHeight="827" background="#FFFFFF" math="1" shadow="0">
      <root>
        <mxCell id="0" />
        <mxCell id="1" parent="0" />
        <mxCell id="x7ziQEbD_U3u6JEOvs06-8" style="edgeStyle=orthogonalEdgeStyle;rounded=0;orthogonalLoop=1;jettySize=auto;html=1;entryX=0;entryY=0.5;entryDx=0;entryDy=0;exitX=0.75;exitY=1;exitDx=0;exitDy=0;strokeWidth=2;verticalAlign=top;fontFamily=Helvetica;" parent="1" source="x7ziQEbD_U3u6JEOvs06-2" target="x7ziQEbD_U3u6JEOvs06-5" edge="1">
          <mxGeometry relative="1" as="geometry" />
        </mxCell>
        <mxCell id="x7ziQEbD_U3u6JEOvs06-13" value="Output" style="edgeLabel;html=1;align=center;verticalAlign=middle;resizable=0;points=[];fontSize=14;fontStyle=1;fontFamily=Helvetica;container=0;" parent="x7ziQEbD_U3u6JEOvs06-8" vertex="1" connectable="0">
          <mxGeometry relative="1" as="geometry">
            <mxPoint x="15" as="offset" />
          </mxGeometry>
        </mxCell>
        <mxCell id="x7ziQEbD_U3u6JEOvs06-7" value="" style="edgeStyle=orthogonalEdgeStyle;rounded=0;orthogonalLoop=1;jettySize=auto;html=1;strokeWidth=2;endSize=10;fontFamily=Helvetica;" parent="1" source="x7ziQEbD_U3u6JEOvs06-1" target="x7ziQEbD_U3u6JEOvs06-2" edge="1">
          <mxGeometry relative="1" as="geometry" />
        </mxCell>
        <mxCell id="x7ziQEbD_U3u6JEOvs06-12" value="Input&lt;br style=&quot;font-size: 14px;&quot;&gt;" style="edgeLabel;html=1;align=center;verticalAlign=middle;resizable=0;points=[];labelBorderColor=none;fontSize=14;spacingLeft=0;spacingRight=0;spacing=2;fontStyle=1;fontFamily=Helvetica;container=0;" parent="x7ziQEbD_U3u6JEOvs06-7" vertex="1" connectable="0">
          <mxGeometry x="-0.181" y="3" relative="1" as="geometry">
            <mxPoint as="offset" />
          </mxGeometry>
        </mxCell>
        <mxCell id="x7ziQEbD_U3u6JEOvs06-198" value="&lt;b style=&quot;font-size: 14px;&quot;&gt;Original &lt;br&gt;dataset&lt;/b&gt;" style="shape=datastore;whiteSpace=wrap;html=1;fillColor=#f5f5f5;fontColor=#000000;strokeColor=#666666;strokeWidth=2;fontFamily=Helvetica;container=0;" parent="1" vertex="1">
          <mxGeometry x="795" y="23" width="100" height="100" as="geometry" />
        </mxCell>
        <mxCell id="x7ziQEbD_U3u6JEOvs06-205" value="&lt;span style=&quot;color: rgb(0, 0, 0); font-family: Helvetica; font-size: 12px; font-style: normal; font-variant-ligatures: normal; font-variant-caps: normal; font-weight: 400; letter-spacing: normal; orphans: 2; text-align: center; text-indent: 0px; text-transform: none; widows: 2; word-spacing: 0px; -webkit-text-stroke-width: 0px; background-color: rgb(251, 251, 251); text-decoration-thickness: initial; text-decoration-style: initial; text-decoration-color: initial; float: none; display: inline !important;&quot;&gt;$${\boldsymbol{x}}$$&lt;/span&gt;" style="text;whiteSpace=wrap;html=1;fontSize=12;fontFamily=Helvetica;fontColor=default;container=0;" parent="1" vertex="1">
          <mxGeometry x="841" y="10" width="20" height="40" as="geometry" />
        </mxCell>
        <mxCell id="x7ziQEbD_U3u6JEOvs06-3" value="&lt;b&gt;&lt;font style=&quot;font-size: 16px;&quot;&gt;Discriminator&lt;/font&gt;&lt;/b&gt;" style="rounded=1;whiteSpace=wrap;html=1;fillColor=#d5e8d4;strokeColor=#000000;strokeWidth=3;verticalAlign=top;fontFamily=Helvetica;container=0;" parent="1" vertex="1">
          <mxGeometry x="748" y="239" width="390" height="350" as="geometry" />
        </mxCell>
        <mxCell id="x7ziQEbD_U3u6JEOvs06-10" style="rounded=0;orthogonalLoop=1;jettySize=auto;html=1;strokeWidth=3;dashed=1;dashPattern=1 1;exitX=0;exitY=0.5;exitDx=0;exitDy=0;entryX=1;entryY=0.5;entryDx=0;entryDy=0;edgeStyle=orthogonalEdgeStyle;endSize=10;fontFamily=Helvetica;" parent="1" source="x7ziQEbD_U3u6JEOvs06-3" target="x7ziQEbD_U3u6JEOvs06-2" edge="1">
          <mxGeometry relative="1" as="geometry">
            <mxPoint x="709" y="750" as="sourcePoint" />
            <mxPoint x="579" y="610" as="targetPoint" />
          </mxGeometry>
        </mxCell>
        <mxCell id="x7ziQEbD_U3u6JEOvs06-16" value="&lt;font style=&quot;font-size: 14px;&quot;&gt;&lt;b&gt;Backpropagation&lt;/b&gt;&lt;/font&gt;" style="edgeLabel;html=1;align=center;verticalAlign=top;resizable=0;points=[];fontFamily=Helvetica;container=0;" parent="x7ziQEbD_U3u6JEOvs06-10" vertex="1" connectable="0">
          <mxGeometry relative="1" as="geometry">
            <mxPoint as="offset" />
          </mxGeometry>
        </mxCell>
        <mxCell id="x7ziQEbD_U3u6JEOvs06-9" style="rounded=0;orthogonalLoop=1;jettySize=auto;html=1;entryX=0.25;entryY=1;entryDx=0;entryDy=0;strokeWidth=2;edgeStyle=orthogonalEdgeStyle;elbow=vertical;exitX=1;exitY=0.5;exitDx=0;exitDy=0;endSize=10;fontFamily=Helvetica;" parent="1" source="x7ziQEbD_U3u6JEOvs06-5" target="x7ziQEbD_U3u6JEOvs06-3" edge="1">
          <mxGeometry relative="1" as="geometry" />
        </mxCell>
        <mxCell id="x7ziQEbD_U3u6JEOvs06-15" value="&lt;font style=&quot;font-size: 14px;&quot;&gt;&lt;b&gt;Input&lt;/b&gt;&lt;/font&gt;" style="edgeLabel;html=1;align=center;verticalAlign=middle;resizable=0;points=[];fontFamily=Helvetica;container=0;" parent="x7ziQEbD_U3u6JEOvs06-9" vertex="1" connectable="0">
          <mxGeometry relative="1" as="geometry">
            <mxPoint x="-15" as="offset" />
          </mxGeometry>
        </mxCell>
        <mxCell id="x7ziQEbD_U3u6JEOvs06-11" style="rounded=0;orthogonalLoop=1;jettySize=auto;html=1;entryX=0.25;entryY=0;entryDx=0;entryDy=0;strokeWidth=2;endSize=10;edgeStyle=orthogonalEdgeStyle;exitX=0.504;exitY=0.982;exitDx=0;exitDy=0;fontFamily=Helvetica;exitPerimeter=0;" parent="1" source="x7ziQEbD_U3u6JEOvs06-198" target="x7ziQEbD_U3u6JEOvs06-3" edge="1">
          <mxGeometry relative="1" as="geometry">
            <mxPoint x="845" y="127" as="sourcePoint" />
          </mxGeometry>
        </mxCell>
        <mxCell id="x7ziQEbD_U3u6JEOvs06-14" value="Input" style="edgeLabel;html=1;align=center;verticalAlign=middle;resizable=0;points=[];fontStyle=1;fontSize=14;fontFamily=Helvetica;container=0;" parent="x7ziQEbD_U3u6JEOvs06-11" vertex="1" connectable="0">
          <mxGeometry relative="1" as="geometry">
            <mxPoint as="offset" />
          </mxGeometry>
        </mxCell>
        <mxCell id="x7ziQEbD_U3u6JEOvs06-187" value="$$D\left(\boldsymbol{x}; \theta_d\right)$$" style="text;html=1;align=center;verticalAlign=middle;resizable=0;points=[];autosize=1;strokeColor=none;fillColor=none;fontSize=12;fontFamily=Helvetica;fontColor=default;container=0;" parent="1" vertex="1">
          <mxGeometry x="823" y="259" width="240" height="30" as="geometry" />
        </mxCell>
        <mxCell id="x7ziQEbD_U3u6JEOvs06-117" value="" style="html=1;shadow=0;dashed=0;align=center;verticalAlign=middle;shape=mxgraph.arrows2.arrow;dy=0;dx=10;notch=10;aspect=fixed;fontFamily=Helvetica;whiteSpace=wrap;container=0;" parent="1" vertex="1">
          <mxGeometry x="917.4705882352941" y="416.6521739130435" width="42.31460869565217" height="12.695652173913043" as="geometry" />
        </mxCell>
        <mxCell id="x7ziQEbD_U3u6JEOvs06-138" style="rounded=0;orthogonalLoop=1;jettySize=auto;html=1;strokeWidth=1;endArrow=openThin;endFill=0;exitX=1;exitY=0.5;exitDx=0;exitDy=0;exitPerimeter=0;endSize=2;fontFamily=Helvetica;" parent="1" source="x7ziQEbD_U3u6JEOvs06-91" edge="1">
          <mxGeometry relative="1" as="geometry">
            <mxPoint x="835.9411764705883" y="524.5652173913044" as="sourcePoint" />
            <mxPoint x="849.5294117647059" y="296.04347826086956" as="targetPoint" />
          </mxGeometry>
        </mxCell>
        <mxCell id="x7ziQEbD_U3u6JEOvs06-142" value="" style="shape=display;whiteSpace=wrap;html=1;fontFamily=Helvetica;container=0;" parent="1" vertex="1">
          <mxGeometry x="1051.99" y="403.96" width="86.01" height="38.09" as="geometry" />
        </mxCell>
        <mxCell id="x7ziQEbD_U3u6JEOvs06-143" style="rounded=0;orthogonalLoop=1;jettySize=auto;html=1;strokeWidth=1;endArrow=openThin;endFill=0;exitX=1;exitY=0.5;exitDx=0;exitDy=0;exitPerimeter=0;entryX=0;entryY=0.5;entryDx=0;entryDy=0;entryPerimeter=0;endSize=2;fontFamily=Helvetica;" parent="1" source="x7ziQEbD_U3u6JEOvs06-113" target="x7ziQEbD_U3u6JEOvs06-142" edge="1">
          <mxGeometry relative="1" as="geometry">
            <mxPoint x="1039.764705882353" y="308.7391304347826" as="sourcePoint" />
            <mxPoint x="1066.9411764705883" y="435.695652173913" as="targetPoint" />
          </mxGeometry>
        </mxCell>
        <mxCell id="x7ziQEbD_U3u6JEOvs06-145" style="rounded=0;orthogonalLoop=1;jettySize=auto;html=1;strokeWidth=1;endArrow=openThin;endFill=0;exitX=1;exitY=0.5;exitDx=0;exitDy=0;exitPerimeter=0;entryX=0;entryY=0.5;entryDx=0;entryDy=0;entryPerimeter=0;endSize=2;fontFamily=Helvetica;" parent="1" target="x7ziQEbD_U3u6JEOvs06-142" edge="1">
          <mxGeometry relative="1" as="geometry">
            <mxPoint x="1026.1764705882354" y="423" as="sourcePoint" />
            <mxPoint x="1053.3529411764707" y="423" as="targetPoint" />
          </mxGeometry>
        </mxCell>
        <mxCell id="x7ziQEbD_U3u6JEOvs06-146" style="rounded=0;orthogonalLoop=1;jettySize=auto;html=1;strokeWidth=1;endArrow=openThin;endFill=0;exitX=1;exitY=0.5;exitDx=0;exitDy=0;exitPerimeter=0;endSize=2;fontFamily=Helvetica;entryX=-0.005;entryY=0.549;entryDx=0;entryDy=0;entryPerimeter=0;" parent="1" source="x7ziQEbD_U3u6JEOvs06-115" target="x7ziQEbD_U3u6JEOvs06-142" edge="1">
          <mxGeometry relative="1" as="geometry">
            <mxPoint x="1039.764705882353" y="435.695652173913" as="sourcePoint" />
            <mxPoint x="1053.3529411764707" y="423" as="targetPoint" />
          </mxGeometry>
        </mxCell>
        <mxCell id="x7ziQEbD_U3u6JEOvs06-147" style="rounded=0;orthogonalLoop=1;jettySize=auto;html=1;strokeWidth=1;endArrow=openThin;endFill=0;exitX=1;exitY=0.5;exitDx=0;exitDy=0;exitPerimeter=0;endSize=2;fontFamily=Helvetica;entryX=0;entryY=0.5;entryDx=0;entryDy=0;entryPerimeter=0;" parent="1" source="x7ziQEbD_U3u6JEOvs06-116" target="x7ziQEbD_U3u6JEOvs06-142" edge="1">
          <mxGeometry relative="1" as="geometry">
            <mxPoint x="1039.764705882353" y="499.17391304347825" as="sourcePoint" />
            <mxPoint x="1053.3529411764707" y="423" as="targetPoint" />
          </mxGeometry>
        </mxCell>
        <mxCell id="x7ziQEbD_U3u6JEOvs06-183" value="..." style="text;html=1;align=center;verticalAlign=middle;resizable=0;points=[];autosize=1;strokeColor=none;fillColor=none;fontSize=12;fontFamily=Helvetica;fontColor=default;container=0;" parent="1" vertex="1">
          <mxGeometry x="923.6282352941178" y="403.9578260869565" width="30" height="30" as="geometry" />
        </mxCell>
        <mxCell id="x7ziQEbD_U3u6JEOvs06-191" value="&lt;font style=&quot;font-size: 11px;&quot;&gt;$$P(Real|\boldsymbol{x})$$&lt;/font&gt;" style="text;html=1;align=right;verticalAlign=middle;resizable=0;points=[];autosize=1;strokeColor=none;fillColor=none;fontSize=12;fontFamily=Helvetica;fontColor=default;container=0;" parent="1" vertex="1">
          <mxGeometry x="969.9982352941176" y="407.99652173913046" width="160" height="30" as="geometry" />
        </mxCell>
        <mxCell id="x7ziQEbD_U3u6JEOvs06-112" value="" style="strokeWidth=2;html=1;shape=mxgraph.flowchart.start_2;whiteSpace=wrap;fontFamily=Helvetica;container=0;" parent="1" vertex="1">
          <mxGeometry x="985.4117647058824" y="277" width="40.76470588235294" height="38.08695652173913" as="geometry" />
        </mxCell>
        <mxCell id="x7ziQEbD_U3u6JEOvs06-141" style="rounded=0;orthogonalLoop=1;jettySize=auto;html=1;strokeWidth=1;endArrow=openThin;endFill=0;exitX=1;exitY=0.5;exitDx=0;exitDy=0;exitPerimeter=0;entryX=0;entryY=0.5;entryDx=0;entryDy=0;entryPerimeter=0;endSize=2;fontFamily=Helvetica;" parent="1" source="x7ziQEbD_U3u6JEOvs06-112" target="x7ziQEbD_U3u6JEOvs06-142" edge="1">
          <mxGeometry relative="1" as="geometry">
            <mxPoint x="849.5294117647059" y="410.304347826087" as="sourcePoint" />
            <mxPoint x="876.7058823529412" y="321.4347826086956" as="targetPoint" />
          </mxGeometry>
        </mxCell>
        <mxCell id="x7ziQEbD_U3u6JEOvs06-113" value="" style="strokeWidth=2;html=1;shape=mxgraph.flowchart.start_2;whiteSpace=wrap;fontFamily=Helvetica;container=0;" parent="1" vertex="1">
          <mxGeometry x="985.4117647058824" y="340.47826086956525" width="40.76470588235294" height="38.08695652173913" as="geometry" />
        </mxCell>
        <mxCell id="x7ziQEbD_U3u6JEOvs06-114" value="" style="strokeWidth=2;html=1;shape=mxgraph.flowchart.start_2;whiteSpace=wrap;fontFamily=Helvetica;container=0;" parent="1" vertex="1">
          <mxGeometry x="985.4117647058824" y="403.95652173913044" width="40.76470588235294" height="38.08695652173913" as="geometry" />
        </mxCell>
        <mxCell id="x7ziQEbD_U3u6JEOvs06-115" value="" style="strokeWidth=2;html=1;shape=mxgraph.flowchart.start_2;whiteSpace=wrap;fontFamily=Helvetica;container=0;" parent="1" vertex="1">
          <mxGeometry x="985.4117647058824" y="467.4347826086956" width="40.76470588235294" height="38.08695652173913" as="geometry" />
        </mxCell>
        <mxCell id="x7ziQEbD_U3u6JEOvs06-116" value="" style="strokeWidth=2;html=1;shape=mxgraph.flowchart.start_2;whiteSpace=wrap;fontFamily=Helvetica;container=0;" parent="1" vertex="1">
          <mxGeometry x="985.4117647058824" y="530.9130434782609" width="40.76470588235294" height="38.08695652173913" as="geometry" />
        </mxCell>
        <mxCell id="x7ziQEbD_U3u6JEOvs06-89" value="&lt;p style=&quot;line-height: 30%; font-size: 7px;&quot;&gt;Gender&lt;/p&gt;&lt;p style=&quot;line-height: 30%; font-size: 7px;&quot;&gt;M&lt;/p&gt;" style="strokeWidth=2;html=1;shape=mxgraph.flowchart.start_2;whiteSpace=wrap;fontFamily=Helvetica;fontSize=7;container=0;" parent="1" vertex="1">
          <mxGeometry x="768" y="321.4347826086956" width="40.76470588235295" height="38.08695652173913" as="geometry" />
        </mxCell>
        <mxCell id="x7ziQEbD_U3u6JEOvs06-90" value="&lt;p style=&quot;line-height: 30%; font-size: 7px;&quot;&gt;Gender&lt;/p&gt;&lt;p style=&quot;line-height: 30%; font-size: 7px;&quot;&gt;F&lt;/p&gt;" style="strokeWidth=2;html=1;shape=mxgraph.flowchart.start_2;whiteSpace=wrap;fontFamily=Helvetica;fontSize=7;container=0;" parent="1" vertex="1">
          <mxGeometry x="768" y="365.8695652173913" width="40.76470588235295" height="38.08695652173913" as="geometry" />
        </mxCell>
        <mxCell id="x7ziQEbD_U3u6JEOvs06-91" value="&lt;p style=&quot;line-height: 30%; font-size: 7px;&quot;&gt;License&lt;/p&gt;&lt;p style=&quot;line-height: 30%; font-size: 7px;&quot;&gt;Y&lt;/p&gt;" style="strokeWidth=2;html=1;shape=mxgraph.flowchart.start_2;whiteSpace=wrap;fontSize=7;fontFamily=Helvetica;shadow=0;container=0;" parent="1" vertex="1">
          <mxGeometry x="768" y="448.3913043478261" width="40.76470588235295" height="38.08695652173913" as="geometry" />
        </mxCell>
        <mxCell id="x7ziQEbD_U3u6JEOvs06-92" value="&lt;p style=&quot;line-height: 30%; font-size: 7px;&quot;&gt;License&lt;/p&gt;&lt;p style=&quot;line-height: 30%; font-size: 7px;&quot;&gt;N&lt;/p&gt;" style="strokeWidth=2;html=1;shape=mxgraph.flowchart.start_2;whiteSpace=wrap;fontSize=7;fontFamily=Helvetica;shadow=0;container=0;" parent="1" vertex="1">
          <mxGeometry x="768" y="492.82608695652175" width="40.76470588235295" height="38.08695652173913" as="geometry" />
        </mxCell>
        <mxCell id="x7ziQEbD_U3u6JEOvs06-121" style="rounded=0;orthogonalLoop=1;jettySize=auto;html=1;strokeWidth=1;endArrow=openThin;endFill=0;exitX=1;exitY=0.5;exitDx=0;exitDy=0;exitPerimeter=0;entryX=0;entryY=0.5;entryDx=0;entryDy=0;entryPerimeter=0;endSize=2;fontFamily=Helvetica;" parent="1" source="x7ziQEbD_U3u6JEOvs06-92" target="x7ziQEbD_U3u6JEOvs06-101" edge="1">
          <mxGeometry relative="1" as="geometry">
            <mxPoint x="822.3529411764706" y="549.9565217391305" as="sourcePoint" />
            <mxPoint x="849.5294117647059" y="384.9130434782609" as="targetPoint" />
          </mxGeometry>
        </mxCell>
        <mxCell id="x7ziQEbD_U3u6JEOvs06-122" style="rounded=0;orthogonalLoop=1;jettySize=auto;html=1;strokeWidth=1;endArrow=openThin;endFill=0;entryX=0;entryY=0.5;entryDx=0;entryDy=0;entryPerimeter=0;exitX=1;exitY=0.5;exitDx=0;exitDy=0;exitPerimeter=0;endSize=2;fontFamily=Helvetica;" parent="1" source="x7ziQEbD_U3u6JEOvs06-91" target="x7ziQEbD_U3u6JEOvs06-101" edge="1">
          <mxGeometry relative="1" as="geometry">
            <mxPoint x="822.3529411764706" y="473.7826086956522" as="sourcePoint" />
            <mxPoint x="849.5294117647059" y="511.8695652173913" as="targetPoint" />
          </mxGeometry>
        </mxCell>
        <mxCell id="x7ziQEbD_U3u6JEOvs06-123" style="rounded=0;orthogonalLoop=1;jettySize=auto;html=1;strokeWidth=1;endArrow=openThin;endFill=0;entryX=0;entryY=0.5;entryDx=0;entryDy=0;entryPerimeter=0;exitX=1;exitY=0.5;exitDx=0;exitDy=0;exitPerimeter=0;endSize=2;fontFamily=Helvetica;" parent="1" source="x7ziQEbD_U3u6JEOvs06-90" target="x7ziQEbD_U3u6JEOvs06-101" edge="1">
          <mxGeometry relative="1" as="geometry">
            <mxPoint x="835.9411764705883" y="480.1304347826087" as="sourcePoint" />
            <mxPoint x="863.1176470588235" y="562.6521739130435" as="targetPoint" />
          </mxGeometry>
        </mxCell>
        <mxCell id="x7ziQEbD_U3u6JEOvs06-124" style="rounded=0;orthogonalLoop=1;jettySize=auto;html=1;strokeWidth=1;endArrow=openThin;endFill=0;entryX=0;entryY=0.5;entryDx=0;entryDy=0;entryPerimeter=0;exitX=1;exitY=0.5;exitDx=0;exitDy=0;exitPerimeter=0;endSize=2;fontFamily=Helvetica;" parent="1" source="x7ziQEbD_U3u6JEOvs06-89" target="x7ziQEbD_U3u6JEOvs06-101" edge="1">
          <mxGeometry relative="1" as="geometry">
            <mxPoint x="835.9411764705883" y="397.6086956521739" as="sourcePoint" />
            <mxPoint x="863.1176470588235" y="562.6521739130435" as="targetPoint" />
          </mxGeometry>
        </mxCell>
        <mxCell id="x7ziQEbD_U3u6JEOvs06-125" style="rounded=0;orthogonalLoop=1;jettySize=auto;html=1;strokeWidth=1;endArrow=openThin;endFill=0;entryX=0;entryY=0.5;entryDx=0;entryDy=0;entryPerimeter=0;exitX=1;exitY=0.5;exitDx=0;exitDy=0;exitPerimeter=0;endSize=2;fontFamily=Helvetica;" parent="1" source="x7ziQEbD_U3u6JEOvs06-89" target="x7ziQEbD_U3u6JEOvs06-100" edge="1">
          <mxGeometry relative="1" as="geometry">
            <mxPoint x="835.9411764705883" y="353.17391304347825" as="sourcePoint" />
            <mxPoint x="863.1176470588235" y="562.6521739130435" as="targetPoint" />
          </mxGeometry>
        </mxCell>
        <mxCell id="x7ziQEbD_U3u6JEOvs06-126" style="rounded=0;orthogonalLoop=1;jettySize=auto;html=1;strokeWidth=1;endArrow=openThin;endFill=0;entryX=0;entryY=0.5;entryDx=0;entryDy=0;entryPerimeter=0;exitX=1;exitY=0.5;exitDx=0;exitDy=0;exitPerimeter=0;endSize=2;fontFamily=Helvetica;" parent="1" source="x7ziQEbD_U3u6JEOvs06-90" target="x7ziQEbD_U3u6JEOvs06-100" edge="1">
          <mxGeometry relative="1" as="geometry">
            <mxPoint x="835.9411764705883" y="353.17391304347825" as="sourcePoint" />
            <mxPoint x="863.1176470588235" y="499.17391304347825" as="targetPoint" />
          </mxGeometry>
        </mxCell>
        <mxCell id="x7ziQEbD_U3u6JEOvs06-127" style="rounded=0;orthogonalLoop=1;jettySize=auto;html=1;strokeWidth=1;endArrow=openThin;endFill=0;entryX=0;entryY=0.5;entryDx=0;entryDy=0;entryPerimeter=0;exitX=1;exitY=0.5;exitDx=0;exitDy=0;exitPerimeter=0;endSize=2;fontFamily=Helvetica;" parent="1" source="x7ziQEbD_U3u6JEOvs06-91" target="x7ziQEbD_U3u6JEOvs06-100" edge="1">
          <mxGeometry relative="1" as="geometry">
            <mxPoint x="835.9411764705883" y="397.6086956521739" as="sourcePoint" />
            <mxPoint x="863.1176470588235" y="499.17391304347825" as="targetPoint" />
          </mxGeometry>
        </mxCell>
        <mxCell id="x7ziQEbD_U3u6JEOvs06-128" style="rounded=0;orthogonalLoop=1;jettySize=auto;html=1;strokeWidth=1;endArrow=openThin;endFill=0;entryX=0;entryY=0.5;entryDx=0;entryDy=0;entryPerimeter=0;exitX=1;exitY=0.5;exitDx=0;exitDy=0;exitPerimeter=0;endSize=2;fontFamily=Helvetica;" parent="1" source="x7ziQEbD_U3u6JEOvs06-92" target="x7ziQEbD_U3u6JEOvs06-100" edge="1">
          <mxGeometry relative="1" as="geometry">
            <mxPoint x="835.9411764705883" y="480.1304347826087" as="sourcePoint" />
            <mxPoint x="863.1176470588235" y="499.17391304347825" as="targetPoint" />
          </mxGeometry>
        </mxCell>
        <mxCell id="x7ziQEbD_U3u6JEOvs06-129" style="rounded=0;orthogonalLoop=1;jettySize=auto;html=1;strokeWidth=1;endArrow=openThin;endFill=0;entryX=0;entryY=0.5;entryDx=0;entryDy=0;entryPerimeter=0;exitX=1;exitY=0.5;exitDx=0;exitDy=0;exitPerimeter=0;endSize=2;fontFamily=Helvetica;" parent="1" source="x7ziQEbD_U3u6JEOvs06-92" target="x7ziQEbD_U3u6JEOvs06-99" edge="1">
          <mxGeometry relative="1" as="geometry">
            <mxPoint x="835.9411764705883" y="524.5652173913044" as="sourcePoint" />
            <mxPoint x="863.1176470588235" y="499.17391304347825" as="targetPoint" />
          </mxGeometry>
        </mxCell>
        <mxCell id="x7ziQEbD_U3u6JEOvs06-130" style="rounded=0;orthogonalLoop=1;jettySize=auto;html=1;strokeWidth=1;endArrow=openThin;endFill=0;entryX=0;entryY=0.5;entryDx=0;entryDy=0;entryPerimeter=0;exitX=1;exitY=0.5;exitDx=0;exitDy=0;exitPerimeter=0;endSize=2;fontFamily=Helvetica;" parent="1" source="x7ziQEbD_U3u6JEOvs06-91" target="x7ziQEbD_U3u6JEOvs06-99" edge="1">
          <mxGeometry relative="1" as="geometry">
            <mxPoint x="835.9411764705883" y="524.5652173913044" as="sourcePoint" />
            <mxPoint x="863.1176470588235" y="435.695652173913" as="targetPoint" />
          </mxGeometry>
        </mxCell>
        <mxCell id="x7ziQEbD_U3u6JEOvs06-131" style="rounded=0;orthogonalLoop=1;jettySize=auto;html=1;strokeWidth=1;endArrow=openThin;endFill=0;entryX=0;entryY=0.5;entryDx=0;entryDy=0;entryPerimeter=0;exitX=1;exitY=0.5;exitDx=0;exitDy=0;exitPerimeter=0;endSize=2;fontFamily=Helvetica;" parent="1" source="x7ziQEbD_U3u6JEOvs06-90" target="x7ziQEbD_U3u6JEOvs06-99" edge="1">
          <mxGeometry relative="1" as="geometry">
            <mxPoint x="835.9411764705883" y="480.1304347826087" as="sourcePoint" />
            <mxPoint x="863.1176470588235" y="435.695652173913" as="targetPoint" />
          </mxGeometry>
        </mxCell>
        <mxCell id="x7ziQEbD_U3u6JEOvs06-132" style="rounded=0;orthogonalLoop=1;jettySize=auto;html=1;strokeWidth=1;endArrow=openThin;endFill=0;entryX=0;entryY=0.5;entryDx=0;entryDy=0;entryPerimeter=0;exitX=1;exitY=0.5;exitDx=0;exitDy=0;exitPerimeter=0;endSize=2;fontFamily=Helvetica;" parent="1" source="x7ziQEbD_U3u6JEOvs06-89" target="x7ziQEbD_U3u6JEOvs06-99" edge="1">
          <mxGeometry relative="1" as="geometry">
            <mxPoint x="835.9411764705883" y="397.6086956521739" as="sourcePoint" />
            <mxPoint x="863.1176470588235" y="435.695652173913" as="targetPoint" />
          </mxGeometry>
        </mxCell>
        <mxCell id="x7ziQEbD_U3u6JEOvs06-133" style="rounded=0;orthogonalLoop=1;jettySize=auto;html=1;strokeWidth=1;endArrow=openThin;endFill=0;entryX=0;entryY=0.5;entryDx=0;entryDy=0;entryPerimeter=0;exitX=1;exitY=0.5;exitDx=0;exitDy=0;exitPerimeter=0;endSize=2;fontFamily=Helvetica;" parent="1" source="x7ziQEbD_U3u6JEOvs06-89" target="x7ziQEbD_U3u6JEOvs06-98" edge="1">
          <mxGeometry relative="1" as="geometry">
            <mxPoint x="835.9411764705883" y="353.17391304347825" as="sourcePoint" />
            <mxPoint x="863.1176470588235" y="435.695652173913" as="targetPoint" />
          </mxGeometry>
        </mxCell>
        <mxCell id="x7ziQEbD_U3u6JEOvs06-134" style="rounded=0;orthogonalLoop=1;jettySize=auto;html=1;strokeWidth=1;endArrow=openThin;endFill=0;entryX=0;entryY=0.5;entryDx=0;entryDy=0;entryPerimeter=0;exitX=1;exitY=0.5;exitDx=0;exitDy=0;exitPerimeter=0;endSize=2;fontFamily=Helvetica;" parent="1" source="x7ziQEbD_U3u6JEOvs06-90" target="x7ziQEbD_U3u6JEOvs06-98" edge="1">
          <mxGeometry relative="1" as="geometry">
            <mxPoint x="835.9411764705883" y="353.17391304347825" as="sourcePoint" />
            <mxPoint x="863.1176470588235" y="372.2173913043478" as="targetPoint" />
          </mxGeometry>
        </mxCell>
        <mxCell id="x7ziQEbD_U3u6JEOvs06-135" style="rounded=0;orthogonalLoop=1;jettySize=auto;html=1;strokeWidth=1;endArrow=openThin;endFill=0;entryX=0;entryY=0.5;entryDx=0;entryDy=0;entryPerimeter=0;exitX=1;exitY=0.5;exitDx=0;exitDy=0;exitPerimeter=0;endSize=2;fontFamily=Helvetica;" parent="1" source="x7ziQEbD_U3u6JEOvs06-91" target="x7ziQEbD_U3u6JEOvs06-98" edge="1">
          <mxGeometry relative="1" as="geometry">
            <mxPoint x="835.9411764705883" y="397.6086956521739" as="sourcePoint" />
            <mxPoint x="863.1176470588235" y="372.2173913043478" as="targetPoint" />
          </mxGeometry>
        </mxCell>
        <mxCell id="x7ziQEbD_U3u6JEOvs06-136" style="rounded=0;orthogonalLoop=1;jettySize=auto;html=1;strokeWidth=1;endArrow=openThin;endFill=0;entryX=0;entryY=0.5;entryDx=0;entryDy=0;entryPerimeter=0;exitX=1;exitY=0.5;exitDx=0;exitDy=0;exitPerimeter=0;endSize=2;fontFamily=Helvetica;" parent="1" source="x7ziQEbD_U3u6JEOvs06-92" target="x7ziQEbD_U3u6JEOvs06-98" edge="1">
          <mxGeometry relative="1" as="geometry">
            <mxPoint x="835.9411764705883" y="480.1304347826087" as="sourcePoint" />
            <mxPoint x="863.1176470588235" y="372.2173913043478" as="targetPoint" />
          </mxGeometry>
        </mxCell>
        <mxCell id="x7ziQEbD_U3u6JEOvs06-137" style="rounded=0;orthogonalLoop=1;jettySize=auto;html=1;strokeWidth=1;endArrow=openThin;endFill=0;entryX=0;entryY=0.5;entryDx=0;entryDy=0;entryPerimeter=0;exitX=1;exitY=0.5;exitDx=0;exitDy=0;exitPerimeter=0;endSize=2;fontFamily=Helvetica;" parent="1" source="x7ziQEbD_U3u6JEOvs06-92" target="x7ziQEbD_U3u6JEOvs06-97" edge="1">
          <mxGeometry relative="1" as="geometry">
            <mxPoint x="835.9411764705883" y="524.5652173913044" as="sourcePoint" />
            <mxPoint x="863.1176470588235" y="372.2173913043478" as="targetPoint" />
          </mxGeometry>
        </mxCell>
        <mxCell id="x7ziQEbD_U3u6JEOvs06-139" style="rounded=0;orthogonalLoop=1;jettySize=auto;html=1;strokeWidth=1;endArrow=openThin;endFill=0;exitX=1;exitY=0.5;exitDx=0;exitDy=0;exitPerimeter=0;entryX=0;entryY=0.5;entryDx=0;entryDy=0;entryPerimeter=0;endSize=2;fontFamily=Helvetica;" parent="1" source="x7ziQEbD_U3u6JEOvs06-90" target="x7ziQEbD_U3u6JEOvs06-97" edge="1">
          <mxGeometry relative="1" as="geometry">
            <mxPoint x="835.9411764705883" y="480.1304347826087" as="sourcePoint" />
            <mxPoint x="863.1176470588235" y="308.7391304347826" as="targetPoint" />
          </mxGeometry>
        </mxCell>
        <mxCell id="x7ziQEbD_U3u6JEOvs06-140" style="rounded=0;orthogonalLoop=1;jettySize=auto;html=1;strokeWidth=1;endArrow=openThin;endFill=0;exitX=1;exitY=0.5;exitDx=0;exitDy=0;exitPerimeter=0;entryX=0;entryY=0.5;entryDx=0;entryDy=0;entryPerimeter=0;endSize=2;fontFamily=Helvetica;" parent="1" source="x7ziQEbD_U3u6JEOvs06-89" target="x7ziQEbD_U3u6JEOvs06-97" edge="1">
          <mxGeometry relative="1" as="geometry">
            <mxPoint x="835.9411764705883" y="397.6086956521739" as="sourcePoint" />
            <mxPoint x="863.1176470588235" y="308.7391304347826" as="targetPoint" />
          </mxGeometry>
        </mxCell>
        <mxCell id="x7ziQEbD_U3u6JEOvs06-185" value="..." style="text;html=1;align=center;verticalAlign=middle;resizable=0;points=[];autosize=1;strokeColor=none;fillColor=none;fontSize=12;fontFamily=Helvetica;fontColor=default;container=0;" parent="1" vertex="1">
          <mxGeometry x="768" y="403.95652173913044" width="30" height="30" as="geometry" />
        </mxCell>
        <mxCell id="x7ziQEbD_U3u6JEOvs06-97" value="" style="strokeWidth=2;html=1;shape=mxgraph.flowchart.start_2;whiteSpace=wrap;fontFamily=Helvetica;container=0;" parent="1" vertex="1">
          <mxGeometry x="849.5294117647059" y="277" width="40.76470588235295" height="38.08695652173913" as="geometry" />
        </mxCell>
        <mxCell id="x7ziQEbD_U3u6JEOvs06-98" value="" style="strokeWidth=2;html=1;shape=mxgraph.flowchart.start_2;whiteSpace=wrap;fontFamily=Helvetica;container=0;" parent="1" vertex="1">
          <mxGeometry x="849.5294117647059" y="340.47826086956525" width="40.76470588235295" height="38.08695652173913" as="geometry" />
        </mxCell>
        <mxCell id="x7ziQEbD_U3u6JEOvs06-99" value="" style="strokeWidth=2;html=1;shape=mxgraph.flowchart.start_2;whiteSpace=wrap;fontFamily=Helvetica;container=0;" parent="1" vertex="1">
          <mxGeometry x="849.5294117647059" y="403.95652173913044" width="40.76470588235295" height="38.08695652173913" as="geometry" />
        </mxCell>
        <mxCell id="x7ziQEbD_U3u6JEOvs06-100" value="" style="strokeWidth=2;html=1;shape=mxgraph.flowchart.start_2;whiteSpace=wrap;fontFamily=Helvetica;container=0;" parent="1" vertex="1">
          <mxGeometry x="849.5294117647059" y="467.4347826086956" width="40.76470588235295" height="38.08695652173913" as="geometry" />
        </mxCell>
        <mxCell id="x7ziQEbD_U3u6JEOvs06-101" value="" style="strokeWidth=2;html=1;shape=mxgraph.flowchart.start_2;whiteSpace=wrap;fontFamily=Helvetica;container=0;" parent="1" vertex="1">
          <mxGeometry x="849.5294117647059" y="530.9130434782609" width="40.76470588235295" height="38.08695652173913" as="geometry" />
        </mxCell>
        <mxCell id="x7ziQEbD_U3u6JEOvs06-2" value="&lt;b&gt;&lt;font style=&quot;font-size: 16px;&quot;&gt;Generator&lt;/font&gt;&lt;/b&gt;" style="rounded=1;whiteSpace=wrap;html=1;fillColor=#f8cecc;strokeColor=#000000;glass=0;shadow=0;strokeWidth=3;verticalAlign=top;movable=1;resizable=1;rotatable=1;deletable=1;editable=1;locked=0;connectable=1;container=0;" parent="1" vertex="1">
          <mxGeometry x="210" y="239" width="390" height="350" as="geometry" />
        </mxCell>
        <mxCell id="x7ziQEbD_U3u6JEOvs06-18" style="edgeStyle=orthogonalEdgeStyle;rounded=0;orthogonalLoop=1;jettySize=auto;html=1;exitX=0.5;exitY=1;exitDx=0;exitDy=0;fontFamily=Helvetica;" parent="1" source="x7ziQEbD_U3u6JEOvs06-2" target="x7ziQEbD_U3u6JEOvs06-2" edge="1">
          <mxGeometry relative="1" as="geometry" />
        </mxCell>
        <mxCell id="x7ziQEbD_U3u6JEOvs06-188" value="$$G\left(\boldsymbol{z}; \theta_g\right)$$" style="text;html=1;align=center;verticalAlign=middle;resizable=0;points=[];autosize=1;strokeColor=none;fillColor=none;fontSize=12;fontFamily=Helvetica;fontColor=default;container=0;" parent="1" vertex="1">
          <mxGeometry x="285" y="260" width="240" height="30" as="geometry" />
        </mxCell>
        <mxCell id="x7ziQEbD_U3u6JEOvs06-87" value="&lt;p style=&quot;line-height: 54%;&quot;&gt;&lt;font style=&quot;font-size: 10px;&quot;&gt;&lt;br&gt;&lt;/font&gt;&lt;/p&gt;" style="html=1;shadow=0;dashed=0;align=center;verticalAlign=middle;shape=mxgraph.arrows2.arrow;dy=0;dx=10;notch=10;aspect=fixed;fontFamily=Helvetica;whiteSpace=wrap;container=0;" parent="1" vertex="1">
          <mxGeometry x="386.547662835249" y="417.6956521739131" width="41.564311255587164" height="12.47054043071922" as="geometry" />
        </mxCell>
        <mxCell id="x7ziQEbD_U3u6JEOvs06-45" style="rounded=0;orthogonalLoop=1;jettySize=auto;html=1;exitX=1;exitY=0.5;exitDx=0;exitDy=0;exitPerimeter=0;strokeWidth=1;endArrow=openThin;endFill=0;endSize=2;fontFamily=Helvetica;" parent="1" source="x7ziQEbD_U3u6JEOvs06-20" edge="1">
          <mxGeometry relative="1" as="geometry">
            <mxPoint x="310.32567049808426" y="474.4347826086957" as="sourcePoint" />
            <mxPoint x="323.39080459770116" y="360.95652173913044" as="targetPoint" />
          </mxGeometry>
        </mxCell>
        <mxCell id="x7ziQEbD_U3u6JEOvs06-46" style="rounded=0;orthogonalLoop=1;jettySize=auto;html=1;strokeWidth=1;endArrow=openThin;endFill=0;entryX=0;entryY=0.5;entryDx=0;entryDy=0;entryPerimeter=0;endSize=2;fontFamily=Helvetica;" parent="1" target="x7ziQEbD_U3u6JEOvs06-21" edge="1">
          <mxGeometry relative="1" as="geometry">
            <mxPoint x="284.1954022988506" y="461.82608695652175" as="sourcePoint" />
            <mxPoint x="336.455938697318" y="373.5652173913044" as="targetPoint" />
          </mxGeometry>
        </mxCell>
        <mxCell id="x7ziQEbD_U3u6JEOvs06-19" value="$$\epsilon_1$$" style="strokeWidth=2;html=1;shape=mxgraph.flowchart.start_2;whiteSpace=wrap;fontFamily=Helvetica;fontSize=7;container=0;" parent="1" vertex="1">
          <mxGeometry x="245" y="367.2608695652174" width="39.195402298850574" height="37.82608695652174" as="geometry" />
        </mxCell>
        <mxCell id="x7ziQEbD_U3u6JEOvs06-20" value="$$\epsilon_2$$" style="strokeWidth=2;html=1;shape=mxgraph.flowchart.start_2;whiteSpace=wrap;fontFamily=Helvetica;fontSize=7;container=0;" parent="1" vertex="1">
          <mxGeometry x="245" y="442.9130434782609" width="39.195402298850574" height="37.82608695652174" as="geometry" />
        </mxCell>
        <mxCell id="x7ziQEbD_U3u6JEOvs06-21" value="" style="strokeWidth=2;html=1;shape=mxgraph.flowchart.start_2;whiteSpace=wrap;fontFamily=Helvetica;container=0;" parent="1" vertex="1">
          <mxGeometry x="323.39080459770116" y="279" width="39.195402298850574" height="37.82608695652174" as="geometry" />
        </mxCell>
        <mxCell id="x7ziQEbD_U3u6JEOvs06-22" value="" style="strokeWidth=2;html=1;shape=mxgraph.flowchart.start_2;whiteSpace=wrap;fontFamily=Helvetica;container=0;" parent="1" vertex="1">
          <mxGeometry x="323.39080459770116" y="342.04347826086956" width="39.195402298850574" height="37.82608695652174" as="geometry" />
        </mxCell>
        <mxCell id="x7ziQEbD_U3u6JEOvs06-23" value="" style="strokeWidth=2;html=1;shape=mxgraph.flowchart.start_2;whiteSpace=wrap;fontFamily=Helvetica;container=0;" parent="1" vertex="1">
          <mxGeometry x="323.39080459770116" y="405.0869565217391" width="39.195402298850574" height="37.82608695652174" as="geometry" />
        </mxCell>
        <mxCell id="x7ziQEbD_U3u6JEOvs06-24" value="" style="strokeWidth=2;html=1;shape=mxgraph.flowchart.start_2;whiteSpace=wrap;fontFamily=Helvetica;container=0;" parent="1" vertex="1">
          <mxGeometry x="323.39080459770116" y="468.13043478260875" width="39.195402298850574" height="37.82608695652174" as="geometry" />
        </mxCell>
        <mxCell id="x7ziQEbD_U3u6JEOvs06-25" value="" style="strokeWidth=2;html=1;shape=mxgraph.flowchart.start_2;whiteSpace=wrap;fontFamily=Helvetica;container=0;" parent="1" vertex="1">
          <mxGeometry x="323.39080459770116" y="531.1739130434783" width="39.195402298850574" height="37.82608695652174" as="geometry" />
        </mxCell>
        <mxCell id="x7ziQEbD_U3u6JEOvs06-35" style="rounded=0;orthogonalLoop=1;jettySize=auto;html=1;exitX=1;exitY=0.5;exitDx=0;exitDy=0;exitPerimeter=0;entryX=0;entryY=0.5;entryDx=0;entryDy=0;entryPerimeter=0;strokeWidth=1;endArrow=openThin;endFill=0;endSize=2;fontFamily=Helvetica;" parent="1" source="x7ziQEbD_U3u6JEOvs06-19" target="x7ziQEbD_U3u6JEOvs06-21" edge="1">
          <mxGeometry relative="1" as="geometry" />
        </mxCell>
        <mxCell id="x7ziQEbD_U3u6JEOvs06-38" style="rounded=0;orthogonalLoop=1;jettySize=auto;html=1;exitX=1;exitY=0.5;exitDx=0;exitDy=0;exitPerimeter=0;entryX=0;entryY=0.5;entryDx=0;entryDy=0;entryPerimeter=0;strokeWidth=1;endArrow=openThin;endFill=0;endSize=2;fontFamily=Helvetica;" parent="1" source="x7ziQEbD_U3u6JEOvs06-19" target="x7ziQEbD_U3u6JEOvs06-22" edge="1">
          <mxGeometry relative="1" as="geometry">
            <mxPoint x="305.09961685823754" y="384.9130434782609" as="sourcePoint" />
            <mxPoint x="336.455938697318" y="310.5217391304348" as="targetPoint" />
          </mxGeometry>
        </mxCell>
        <mxCell id="x7ziQEbD_U3u6JEOvs06-39" style="rounded=0;orthogonalLoop=1;jettySize=auto;html=1;entryX=0;entryY=0.5;entryDx=0;entryDy=0;entryPerimeter=0;strokeWidth=1;endArrow=openThin;endFill=0;exitX=1;exitY=0.5;exitDx=0;exitDy=0;exitPerimeter=0;endSize=2;fontFamily=Helvetica;" parent="1" source="x7ziQEbD_U3u6JEOvs06-19" target="x7ziQEbD_U3u6JEOvs06-23" edge="1">
          <mxGeometry relative="1" as="geometry">
            <mxPoint x="297.2605363984674" y="386.17391304347825" as="sourcePoint" />
            <mxPoint x="349.52107279693485" y="323.1304347826087" as="targetPoint" />
          </mxGeometry>
        </mxCell>
        <mxCell id="x7ziQEbD_U3u6JEOvs06-40" style="rounded=0;orthogonalLoop=1;jettySize=auto;html=1;exitX=1;exitY=0.5;exitDx=0;exitDy=0;exitPerimeter=0;entryX=0;entryY=0.5;entryDx=0;entryDy=0;entryPerimeter=0;strokeWidth=1;endArrow=openThin;endFill=0;endSize=2;fontFamily=Helvetica;" parent="1" source="x7ziQEbD_U3u6JEOvs06-19" target="x7ziQEbD_U3u6JEOvs06-24" edge="1">
          <mxGeometry relative="1" as="geometry">
            <mxPoint x="331.2298850574713" y="410.13043478260875" as="sourcePoint" />
            <mxPoint x="362.58620689655174" y="335.7391304347826" as="targetPoint" />
          </mxGeometry>
        </mxCell>
        <mxCell id="x7ziQEbD_U3u6JEOvs06-41" style="rounded=0;orthogonalLoop=1;jettySize=auto;html=1;exitX=1;exitY=0.5;exitDx=0;exitDy=0;exitPerimeter=0;strokeWidth=1;endArrow=openThin;endFill=0;entryX=0.145;entryY=0.145;entryDx=0;entryDy=0;entryPerimeter=0;endSize=2;fontFamily=Helvetica;" parent="1" source="x7ziQEbD_U3u6JEOvs06-19" target="x7ziQEbD_U3u6JEOvs06-25" edge="1">
          <mxGeometry relative="1" as="geometry">
            <mxPoint x="344.2950191570881" y="422.7391304347826" as="sourcePoint" />
            <mxPoint x="375.6513409961685" y="348.34782608695656" as="targetPoint" />
          </mxGeometry>
        </mxCell>
        <mxCell id="x7ziQEbD_U3u6JEOvs06-42" style="rounded=0;orthogonalLoop=1;jettySize=auto;html=1;exitX=1;exitY=0.5;exitDx=0;exitDy=0;exitPerimeter=0;strokeWidth=1;endArrow=openThin;endFill=0;entryX=0.145;entryY=0.145;entryDx=0;entryDy=0;entryPerimeter=0;endSize=2;fontFamily=Helvetica;" parent="1" source="x7ziQEbD_U3u6JEOvs06-20" target="x7ziQEbD_U3u6JEOvs06-25" edge="1">
          <mxGeometry relative="1" as="geometry">
            <mxPoint x="310.32567049808426" y="398.7826086956522" as="sourcePoint" />
            <mxPoint x="341.68199233716473" y="548.8260869565217" as="targetPoint" />
          </mxGeometry>
        </mxCell>
        <mxCell id="x7ziQEbD_U3u6JEOvs06-43" style="rounded=0;orthogonalLoop=1;jettySize=auto;html=1;exitX=1;exitY=0.5;exitDx=0;exitDy=0;exitPerimeter=0;strokeWidth=1;endArrow=openThin;endFill=0;entryX=0;entryY=0.5;entryDx=0;entryDy=0;entryPerimeter=0;endSize=2;fontFamily=Helvetica;" parent="1" source="x7ziQEbD_U3u6JEOvs06-20" target="x7ziQEbD_U3u6JEOvs06-24" edge="1">
          <mxGeometry relative="1" as="geometry">
            <mxPoint x="310.32567049808426" y="474.4347826086957" as="sourcePoint" />
            <mxPoint x="341.68199233716473" y="548.8260869565217" as="targetPoint" />
          </mxGeometry>
        </mxCell>
        <mxCell id="x7ziQEbD_U3u6JEOvs06-44" style="rounded=0;orthogonalLoop=1;jettySize=auto;html=1;exitX=1;exitY=0.5;exitDx=0;exitDy=0;exitPerimeter=0;strokeWidth=1;endArrow=openThin;endFill=0;entryX=0;entryY=0.5;entryDx=0;entryDy=0;entryPerimeter=0;endSize=2;fontFamily=Helvetica;" parent="1" source="x7ziQEbD_U3u6JEOvs06-20" target="x7ziQEbD_U3u6JEOvs06-23" edge="1">
          <mxGeometry relative="1" as="geometry">
            <mxPoint x="310.32567049808426" y="474.4347826086957" as="sourcePoint" />
            <mxPoint x="336.455938697318" y="499.6521739130435" as="targetPoint" />
          </mxGeometry>
        </mxCell>
        <mxCell id="x7ziQEbD_U3u6JEOvs06-171" value="Gender&lt;br&gt;M" style="shape=display;whiteSpace=wrap;html=1;strokeColor=default;strokeWidth=2;align=center;verticalAlign=middle;fontFamily=Helvetica;fontSize=7;fontColor=default;fillColor=default;movable=1;resizable=1;rotatable=1;deletable=1;editable=1;locked=0;connectable=1;fontStyle=2;container=0;" parent="1" vertex="1">
          <mxGeometry x="533.7394636015326" y="304.2173913043478" width="52.26053639846743" height="37.82608695652174" as="geometry" />
        </mxCell>
        <mxCell id="x7ziQEbD_U3u6JEOvs06-172" value="Gender&lt;br&gt;F" style="shape=display;whiteSpace=wrap;html=1;strokeColor=default;strokeWidth=2;align=center;verticalAlign=middle;fontFamily=Helvetica;fontSize=7;fontColor=default;fillColor=default;fontStyle=2;container=0;" parent="1" vertex="1">
          <mxGeometry x="533.7394636015326" y="367.2608695652174" width="52.26053639846743" height="37.82608695652174" as="geometry" />
        </mxCell>
        <mxCell id="x7ziQEbD_U3u6JEOvs06-174" value="License&lt;br&gt;Y" style="shape=display;whiteSpace=wrap;html=1;strokeColor=default;strokeWidth=2;align=center;verticalAlign=middle;fontFamily=Helvetica;fontSize=7;fontColor=default;fillColor=default;fontStyle=2;container=0;" parent="1" vertex="1">
          <mxGeometry x="533.7394636015326" y="442.9130434782609" width="52.26053639846743" height="37.82608695652174" as="geometry" />
        </mxCell>
        <mxCell id="x7ziQEbD_U3u6JEOvs06-173" value="License&lt;br&gt;N" style="shape=display;whiteSpace=wrap;html=1;strokeColor=default;strokeWidth=2;align=center;verticalAlign=middle;fontFamily=Helvetica;fontSize=7;fontColor=default;fillColor=default;fontStyle=2;container=0;" parent="1" vertex="1">
          <mxGeometry x="533.7394636015326" y="505.9565217391305" width="52.26053639846743" height="37.82608695652174" as="geometry" />
        </mxCell>
        <mxCell id="x7ziQEbD_U3u6JEOvs06-161" style="rounded=0;orthogonalLoop=1;jettySize=auto;html=1;strokeWidth=1;endArrow=openThin;endFill=0;exitX=0;exitY=0.5;exitDx=0;exitDy=0;exitPerimeter=0;entryX=1;entryY=0.5;entryDx=0;entryDy=0;entryPerimeter=0;endSize=2;startSize=6;fontFamily=Helvetica;" parent="1" source="x7ziQEbD_U3u6JEOvs06-56" edge="1">
          <mxGeometry relative="1" as="geometry">
            <mxPoint x="506.3026819923371" y="310.5217391304348" as="sourcePoint" />
            <mxPoint x="532.4329501915709" y="323.1304347826087" as="targetPoint" />
          </mxGeometry>
        </mxCell>
        <mxCell id="x7ziQEbD_U3u6JEOvs06-162" style="rounded=0;orthogonalLoop=1;jettySize=auto;html=1;strokeWidth=1;endArrow=openThin;endFill=0;exitX=0;exitY=0.5;exitDx=0;exitDy=0;exitPerimeter=0;entryX=1;entryY=0.5;entryDx=0;entryDy=0;entryPerimeter=0;endSize=2;fontFamily=Helvetica;" parent="1" source="x7ziQEbD_U3u6JEOvs06-55" edge="1">
          <mxGeometry relative="1" as="geometry">
            <mxPoint x="506.3026819923371" y="310.5217391304348" as="sourcePoint" />
            <mxPoint x="532.4329501915709" y="323.1304347826087" as="targetPoint" />
          </mxGeometry>
        </mxCell>
        <mxCell id="x7ziQEbD_U3u6JEOvs06-163" style="rounded=0;orthogonalLoop=1;jettySize=auto;html=1;strokeWidth=1;endArrow=openThin;endFill=0;exitX=0;exitY=0.5;exitDx=0;exitDy=0;exitPerimeter=0;entryX=1;entryY=0.5;entryDx=0;entryDy=0;entryPerimeter=0;endSize=2;fontFamily=Helvetica;" parent="1" source="x7ziQEbD_U3u6JEOvs06-54" edge="1">
          <mxGeometry relative="1" as="geometry">
            <mxPoint x="506.3026819923371" y="373.5652173913044" as="sourcePoint" />
            <mxPoint x="532.4329501915709" y="323.1304347826087" as="targetPoint" />
          </mxGeometry>
        </mxCell>
        <mxCell id="x7ziQEbD_U3u6JEOvs06-164" style="rounded=0;orthogonalLoop=1;jettySize=auto;html=1;strokeWidth=1;endArrow=openThin;endFill=0;exitX=0;exitY=0.5;exitDx=0;exitDy=0;exitPerimeter=0;entryX=1;entryY=0.5;entryDx=0;entryDy=0;entryPerimeter=0;endSize=2;fontFamily=Helvetica;" parent="1" source="x7ziQEbD_U3u6JEOvs06-53" edge="1">
          <mxGeometry relative="1" as="geometry">
            <mxPoint x="506.3026819923371" y="436.60869565217394" as="sourcePoint" />
            <mxPoint x="532.4329501915709" y="323.1304347826087" as="targetPoint" />
          </mxGeometry>
        </mxCell>
        <mxCell id="x7ziQEbD_U3u6JEOvs06-165" style="rounded=0;orthogonalLoop=1;jettySize=auto;html=1;strokeWidth=1;endArrow=openThin;endFill=0;exitX=0;exitY=0.5;exitDx=0;exitDy=0;exitPerimeter=0;entryX=1;entryY=0.5;entryDx=0;entryDy=0;entryPerimeter=0;endSize=2;fontFamily=Helvetica;" parent="1" source="x7ziQEbD_U3u6JEOvs06-52" edge="1">
          <mxGeometry relative="1" as="geometry">
            <mxPoint x="506.3026819923371" y="499.6521739130435" as="sourcePoint" />
            <mxPoint x="532.4329501915709" y="323.1304347826087" as="targetPoint" />
          </mxGeometry>
        </mxCell>
        <mxCell id="x7ziQEbD_U3u6JEOvs06-52" value="" style="strokeWidth=2;html=1;shape=mxgraph.flowchart.start_2;whiteSpace=wrap;rotation=-180;fontFamily=Helvetica;container=0;" parent="1" vertex="1">
          <mxGeometry x="454.0421455938697" y="531.1739130434783" width="39.195402298850574" height="37.82608695652174" as="geometry" />
        </mxCell>
        <mxCell id="x7ziQEbD_U3u6JEOvs06-53" value="" style="strokeWidth=2;html=1;shape=mxgraph.flowchart.start_2;whiteSpace=wrap;rotation=-180;fontFamily=Helvetica;container=0;" parent="1" vertex="1">
          <mxGeometry x="454.0421455938697" y="468.13043478260875" width="39.195402298850574" height="37.82608695652174" as="geometry" />
        </mxCell>
        <mxCell id="x7ziQEbD_U3u6JEOvs06-54" value="" style="strokeWidth=2;html=1;shape=mxgraph.flowchart.start_2;whiteSpace=wrap;rotation=-180;fontFamily=Helvetica;container=0;" parent="1" vertex="1">
          <mxGeometry x="454.0421455938697" y="405.0869565217391" width="39.195402298850574" height="37.82608695652174" as="geometry" />
        </mxCell>
        <mxCell id="x7ziQEbD_U3u6JEOvs06-55" value="" style="strokeWidth=2;html=1;shape=mxgraph.flowchart.start_2;whiteSpace=wrap;rotation=-180;fontFamily=Helvetica;container=0;" parent="1" vertex="1">
          <mxGeometry x="454.0421455938697" y="342.04347826086956" width="39.195402298850574" height="37.82608695652174" as="geometry" />
        </mxCell>
        <mxCell id="x7ziQEbD_U3u6JEOvs06-56" value="" style="strokeWidth=2;html=1;shape=mxgraph.flowchart.start_2;whiteSpace=wrap;rotation=-180;fontFamily=Helvetica;container=0;" parent="1" vertex="1">
          <mxGeometry x="454.0421455938697" y="279" width="39.195402298850574" height="37.82608695652174" as="geometry" />
        </mxCell>
        <mxCell id="x7ziQEbD_U3u6JEOvs06-77" style="rounded=0;orthogonalLoop=1;jettySize=auto;html=1;strokeWidth=1;endArrow=openThin;endFill=0;entryX=1;entryY=0.5;entryDx=0;entryDy=0;entryPerimeter=0;exitX=0;exitY=0.5;exitDx=0;exitDy=0;exitPerimeter=0;endSize=2;fontFamily=Helvetica;" parent="1" source="x7ziQEbD_U3u6JEOvs06-56" edge="1">
          <mxGeometry relative="1" as="geometry">
            <mxPoint x="506.3026819923371" y="461.82608695652175" as="sourcePoint" />
            <mxPoint x="532.4329501915709" y="386.17391304347825" as="targetPoint" />
          </mxGeometry>
        </mxCell>
        <mxCell id="x7ziQEbD_U3u6JEOvs06-78" style="rounded=0;orthogonalLoop=1;jettySize=auto;html=1;strokeWidth=1;endArrow=openThin;endFill=0;exitX=0;exitY=0.5;exitDx=0;exitDy=0;exitPerimeter=0;entryX=1;entryY=0.5;entryDx=0;entryDy=0;entryPerimeter=0;endSize=2;fontFamily=Helvetica;" parent="1" source="x7ziQEbD_U3u6JEOvs06-55" edge="1">
          <mxGeometry relative="1" as="geometry">
            <mxPoint x="493.2375478927203" y="354.6521739130435" as="sourcePoint" />
            <mxPoint x="532.4329501915709" y="461.82608695652175" as="targetPoint" />
          </mxGeometry>
        </mxCell>
        <mxCell id="x7ziQEbD_U3u6JEOvs06-80" style="rounded=0;orthogonalLoop=1;jettySize=auto;html=1;strokeWidth=1;endArrow=openThin;endFill=0;entryX=1;entryY=0.5;entryDx=0;entryDy=0;entryPerimeter=0;exitX=0;exitY=0.5;exitDx=0;exitDy=0;exitPerimeter=0;endSize=2;fontFamily=Helvetica;" parent="1" source="x7ziQEbD_U3u6JEOvs06-55" edge="1">
          <mxGeometry relative="1" as="geometry">
            <mxPoint x="506.3026819923371" y="310.5217391304348" as="sourcePoint" />
            <mxPoint x="532.4329501915709" y="386.17391304347825" as="targetPoint" />
          </mxGeometry>
        </mxCell>
        <mxCell id="x7ziQEbD_U3u6JEOvs06-79" style="rounded=0;orthogonalLoop=1;jettySize=auto;html=1;strokeWidth=1;endArrow=openThin;endFill=0;entryX=1;entryY=0.5;entryDx=0;entryDy=0;entryPerimeter=0;exitX=0;exitY=0.5;exitDx=0;exitDy=0;exitPerimeter=0;endSize=2;fontFamily=Helvetica;" parent="1" source="x7ziQEbD_U3u6JEOvs06-56" edge="1">
          <mxGeometry relative="1" as="geometry">
            <mxPoint x="506.3026819923371" y="373.5652173913044" as="sourcePoint" />
            <mxPoint x="532.4329501915709" y="461.82608695652175" as="targetPoint" />
          </mxGeometry>
        </mxCell>
        <mxCell id="x7ziQEbD_U3u6JEOvs06-81" style="rounded=0;orthogonalLoop=1;jettySize=auto;html=1;strokeWidth=1;endArrow=openThin;endFill=0;exitX=0;exitY=0.5;exitDx=0;exitDy=0;exitPerimeter=0;entryX=1;entryY=0.5;entryDx=0;entryDy=0;entryPerimeter=0;endSize=2;fontFamily=Helvetica;" parent="1" source="x7ziQEbD_U3u6JEOvs06-54" edge="1">
          <mxGeometry relative="1" as="geometry">
            <mxPoint x="506.3026819923371" y="373.5652173913044" as="sourcePoint" />
            <mxPoint x="532.4329501915709" y="461.82608695652175" as="targetPoint" />
          </mxGeometry>
        </mxCell>
        <mxCell id="x7ziQEbD_U3u6JEOvs06-82" style="rounded=0;orthogonalLoop=1;jettySize=auto;html=1;strokeWidth=1;endArrow=openThin;endFill=0;entryX=1;entryY=0.5;entryDx=0;entryDy=0;entryPerimeter=0;endSize=2;fontFamily=Helvetica;" parent="1" edge="1">
          <mxGeometry relative="1" as="geometry">
            <mxPoint x="493.2375478927203" y="424" as="sourcePoint" />
            <mxPoint x="532.4329501915709" y="386.17391304347825" as="targetPoint" />
          </mxGeometry>
        </mxCell>
        <mxCell id="x7ziQEbD_U3u6JEOvs06-83" style="rounded=0;orthogonalLoop=1;jettySize=auto;html=1;strokeWidth=1;endArrow=openThin;endFill=0;entryX=1;entryY=0.5;entryDx=0;entryDy=0;entryPerimeter=0;exitX=0;exitY=0.5;exitDx=0;exitDy=0;exitPerimeter=0;endSize=2;fontFamily=Helvetica;" parent="1" source="x7ziQEbD_U3u6JEOvs06-53" edge="1">
          <mxGeometry relative="1" as="geometry">
            <mxPoint x="506.3026819923371" y="436.60869565217394" as="sourcePoint" />
            <mxPoint x="532.4329501915709" y="386.17391304347825" as="targetPoint" />
          </mxGeometry>
        </mxCell>
        <mxCell id="x7ziQEbD_U3u6JEOvs06-84" style="rounded=0;orthogonalLoop=1;jettySize=auto;html=1;strokeWidth=1;endArrow=openThin;endFill=0;entryX=1;entryY=0.5;entryDx=0;entryDy=0;entryPerimeter=0;exitX=0;exitY=0.5;exitDx=0;exitDy=0;exitPerimeter=0;endSize=2;fontFamily=Helvetica;" parent="1" source="x7ziQEbD_U3u6JEOvs06-53" edge="1">
          <mxGeometry relative="1" as="geometry">
            <mxPoint x="506.3026819923371" y="499.6521739130435" as="sourcePoint" />
            <mxPoint x="532.4329501915709" y="461.82608695652175" as="targetPoint" />
          </mxGeometry>
        </mxCell>
        <mxCell id="x7ziQEbD_U3u6JEOvs06-85" style="rounded=0;orthogonalLoop=1;jettySize=auto;html=1;strokeWidth=1;endArrow=openThin;endFill=0;entryX=1;entryY=0.5;entryDx=0;entryDy=0;entryPerimeter=0;exitX=0;exitY=0.5;exitDx=0;exitDy=0;exitPerimeter=0;endSize=2;fontFamily=Helvetica;" parent="1" source="x7ziQEbD_U3u6JEOvs06-52" edge="1">
          <mxGeometry relative="1" as="geometry">
            <mxPoint x="506.3026819923371" y="499.6521739130435" as="sourcePoint" />
            <mxPoint x="532.4329501915709" y="461.82608695652175" as="targetPoint" />
          </mxGeometry>
        </mxCell>
        <mxCell id="x7ziQEbD_U3u6JEOvs06-86" style="rounded=0;orthogonalLoop=1;jettySize=auto;html=1;strokeWidth=1;endArrow=openThin;endFill=0;exitX=0;exitY=0.5;exitDx=0;exitDy=0;exitPerimeter=0;entryX=1;entryY=0.5;entryDx=0;entryDy=0;entryPerimeter=0;endSize=2;fontFamily=Helvetica;" parent="1" source="x7ziQEbD_U3u6JEOvs06-52" edge="1">
          <mxGeometry relative="1" as="geometry">
            <mxPoint x="506.3026819923371" y="575.304347826087" as="sourcePoint" />
            <mxPoint x="532.4329501915709" y="386.17391304347825" as="targetPoint" />
          </mxGeometry>
        </mxCell>
        <mxCell id="x7ziQEbD_U3u6JEOvs06-154" style="rounded=0;orthogonalLoop=1;jettySize=auto;html=1;strokeWidth=1;endArrow=openThin;endFill=0;entryX=1;entryY=0.5;entryDx=0;entryDy=0;entryPerimeter=0;exitX=0;exitY=0.5;exitDx=0;exitDy=0;exitPerimeter=0;endSize=2;fontFamily=Helvetica;" parent="1" source="x7ziQEbD_U3u6JEOvs06-52" edge="1">
          <mxGeometry relative="1" as="geometry">
            <mxPoint x="506.3026819923371" y="562.6956521739131" as="sourcePoint" />
            <mxPoint x="532.4329501915709" y="524.8695652173914" as="targetPoint" />
          </mxGeometry>
        </mxCell>
        <mxCell id="x7ziQEbD_U3u6JEOvs06-156" style="rounded=0;orthogonalLoop=1;jettySize=auto;html=1;strokeWidth=1;endArrow=openThin;endFill=0;exitX=0;exitY=0.5;exitDx=0;exitDy=0;exitPerimeter=0;entryX=1;entryY=0.5;entryDx=0;entryDy=0;entryPerimeter=0;endSize=2;fontFamily=Helvetica;" parent="1" source="x7ziQEbD_U3u6JEOvs06-54" edge="1">
          <mxGeometry relative="1" as="geometry">
            <mxPoint x="506.3026819923371" y="499.6521739130435" as="sourcePoint" />
            <mxPoint x="532.4329501915709" y="524.8695652173914" as="targetPoint" />
          </mxGeometry>
        </mxCell>
        <mxCell id="x7ziQEbD_U3u6JEOvs06-160" style="rounded=0;orthogonalLoop=1;jettySize=auto;html=1;strokeWidth=1;endArrow=openThin;endFill=0;exitX=0;exitY=0.5;exitDx=0;exitDy=0;exitPerimeter=0;entryX=1;entryY=0.5;entryDx=0;entryDy=0;entryPerimeter=0;endSize=2;fontFamily=Helvetica;" parent="1" source="x7ziQEbD_U3u6JEOvs06-56" edge="1">
          <mxGeometry relative="1" as="geometry">
            <mxPoint x="506.3026819923371" y="373.5652173913044" as="sourcePoint" />
            <mxPoint x="532.4329501915709" y="524.8695652173914" as="targetPoint" />
          </mxGeometry>
        </mxCell>
        <mxCell id="x7ziQEbD_U3u6JEOvs06-155" style="rounded=0;orthogonalLoop=1;jettySize=auto;html=1;strokeWidth=1;endArrow=openThin;endFill=0;exitX=0;exitY=0.5;exitDx=0;exitDy=0;exitPerimeter=0;endSize=2;fontFamily=Helvetica;entryX=0;entryY=0.5;entryDx=0;entryDy=0;entryPerimeter=0;" parent="1" source="x7ziQEbD_U3u6JEOvs06-53" target="x7ziQEbD_U3u6JEOvs06-173" edge="1">
          <mxGeometry relative="1" as="geometry">
            <mxPoint x="651.3256704980843" y="304.2173913043478" as="sourcePoint" />
            <mxPoint x="532.4329501915709" y="676.1739130434783" as="targetPoint" />
          </mxGeometry>
        </mxCell>
        <mxCell id="x7ziQEbD_U3u6JEOvs06-159" style="rounded=0;orthogonalLoop=1;jettySize=auto;html=1;strokeWidth=1;endArrow=openThin;endFill=0;exitX=0;exitY=0.5;exitDx=0;exitDy=0;exitPerimeter=0;entryX=0;entryY=0.5;entryDx=0;entryDy=0;entryPerimeter=0;endSize=2;fontFamily=Helvetica;" parent="1" source="x7ziQEbD_U3u6JEOvs06-55" target="x7ziQEbD_U3u6JEOvs06-173" edge="1">
          <mxGeometry relative="1" as="geometry">
            <mxPoint x="335.14942528735634" y="695.0869565217392" as="sourcePoint" />
            <mxPoint x="374.34482758620686" y="859.0000000000001" as="targetPoint" />
          </mxGeometry>
        </mxCell>
        <mxCell id="x7ziQEbD_U3u6JEOvs06-186" value="..." style="text;html=1;align=center;verticalAlign=middle;resizable=0;points=[];autosize=1;strokeColor=none;fillColor=none;fontSize=12;fontFamily=Helvetica;fontColor=default;container=0;" parent="1" vertex="1">
          <mxGeometry x="392.3300000000001" y="405.09000000000003" width="30" height="30" as="geometry" />
        </mxCell>
        <mxCell id="x7ziQEbD_U3u6JEOvs06-184" value="..." style="text;html=1;align=center;verticalAlign=middle;resizable=0;points=[];autosize=1;strokeColor=none;fillColor=none;fontSize=12;fontFamily=Helvetica;fontColor=default;container=0;" parent="1" vertex="1">
          <mxGeometry x="544.872030651341" y="405.09434782608696" width="30" height="30" as="geometry" />
        </mxCell>
        <mxCell id="x7ziQEbD_U3u6JEOvs06-180" value="$$\epsilon \sim \mathcal{N}(\overrightarrow{0}, \mathbf{I})$$" style="text;html=1;align=left;verticalAlign=middle;resizable=0;points=[];autosize=1;strokeColor=none;fillColor=none;fontSize=12;fontFamily=Helvetica;fontColor=default;container=0;" parent="1" vertex="1">
          <mxGeometry x="220" y="304.22" width="340" height="30" as="geometry" />
        </mxCell>
        <mxCell id="x7ziQEbD_U3u6JEOvs06-5" value="&lt;b style=&quot;font-size: 14px;&quot;&gt;Synthetic&lt;br&gt;dataset&lt;/b&gt;" style="shape=datastore;whiteSpace=wrap;html=1;fillColor=#E6E6E6;strokeColor=#666666;fontColor=#000000;gradientColor=none;strokeWidth=2;fontFamily=Helvetica;container=0;" parent="1" vertex="1">
          <mxGeometry x="630" y="630" width="100" height="100" as="geometry" />
        </mxCell>
        <mxCell id="x7ziQEbD_U3u6JEOvs06-190" value="&lt;span style=&quot;color: rgb(0, 0, 0); font-family: Helvetica; font-size: 16px; font-style: normal; font-variant-ligatures: normal; font-variant-caps: normal; font-weight: 400; letter-spacing: normal; orphans: 2; text-align: center; text-indent: 0px; text-transform: none; widows: 2; word-spacing: 0px; -webkit-text-stroke-width: 0px; background-color: rgb(251, 251, 251); text-decoration-thickness: initial; text-decoration-style: initial; text-decoration-color: initial; float: none; display: inline !important;&quot;&gt;$$\widehat{G}(\boldsymbol{z})$$&lt;/span&gt;" style="text;whiteSpace=wrap;html=1;fontSize=16;fontFamily=Helvetica;fontColor=default;container=0;" parent="1" vertex="1">
          <mxGeometry x="667.25" y="605" width="25.5" height="34" as="geometry" />
        </mxCell>
        <mxCell id="x7ziQEbD_U3u6JEOvs06-1" value="&lt;b&gt;&lt;font style=&quot;font-size: 14px;&quot;&gt;Noise&lt;/font&gt;&lt;/b&gt;" style="ellipse;whiteSpace=wrap;html=1;fillColor=#dae8fc;strokeColor=#6c8ebf;strokeWidth=3;fontFamily=Helvetica;container=0;" parent="1" vertex="1">
          <mxGeometry x="10" y="374" width="105" height="80" as="geometry" />
        </mxCell>
        <mxCell id="x7ziQEbD_U3u6JEOvs06-178" value="$$p_{\boldsymbol{z}}(\boldsymbol{z})$$" style="text;whiteSpace=wrap;html=1;fontSize=16;fontFamily=Helvetica;fontColor=default;container=0;" parent="1" vertex="1">
          <mxGeometry x="42.5" y="400" width="40" height="40" as="geometry" />
        </mxCell>
      </root>
    </mxGraphModel>
  </diagram>
</mxfile>
